# xmcd
#
# Track frame offsets: 
#        150
#        16796
#        32885
#        43497
#        59698
#        69114
#        81626
#        94345
#        108007
#        123331
#        141574
#        153671
#        167397
#
# Disc length: 2474 seconds
#
# Revision: 34
# Processed by: cddbd v1.5.2PL0 Copyright (c) Steve Scherf et al.
# Submitted via: ExactAudioCopyFreeDBPlugin 1.0
#
DISCID=b409a80d
DTITLE=Franz Ferdinand - You could have it so much better
DYEAR=2005
DGENRE=Indie
TTITLE0=The fallen
TTITLE1=Do you want to
TTITLE2=This boy
TTITLE3=Walk away
TTITLE4=Evil and a heathen
TTITLE5=You're the reason I'm leaving
TTITLE6=Eleanor put your boots on
TTITLE7=Well that was easy
TTITLE8=What you meant
TTITLE9=I'm your villain
TTITLE10=You could have it so much better
TTITLE11=Fade together
TTITLE12=Outsiders
EXTD=YEAR: 2005
EXTT0=
EXTT1=
EXTT2=
EXTT3=
EXTT4=
EXTT5=
EXTT6=
EXTT7=
EXTT8=
EXTT9=
EXTT10=
EXTT11=
EXTT12=
PLAYORDER=
